<svg width="30" height="19" viewBox="0 0 30 19" fill="none" xmlns="http://www.w3.org/2000/svg">
<path d="M11.4078 18.8766C12.4783 18.8766 13.346 18.063 13.346 17.0595C13.346 16.0559 12.4783 15.2423 11.4078 15.2423C10.3374 15.2423 9.4696 16.0559 9.4696 17.0595C9.4696 18.063 10.3374 18.8766 11.4078 18.8766Z" fill="white"/>
<path d="M22.3198 18.8766C23.3903 18.8766 24.258 18.063 24.258 17.0595C24.258 16.0559 23.3903 15.2423 22.3198 15.2423C21.2494 15.2423 20.3816 16.0559 20.3816 17.0595C20.3816 18.063 21.2494 18.8766 22.3198 18.8766Z" fill="white"/>
<path d="M0 0.125977V1.38407H4.57156L8.00053 13.8575H25.4511V12.5994H9.04064L8.25257 9.73324H26.3726L29.0135 0.126663V0.125977H0ZM25.333 8.47515H7.90684L5.95739 1.38407H27.2825L25.333 8.47515Z" fill="white"/>
</svg>
