<svg width="65" height="49" viewBox="0 0 65 49" fill="none" xmlns="http://www.w3.org/2000/svg">
<path d="M50.081 15.3216C50.5209 15.3228 50.9423 15.4872 51.2533 15.7788C51.5644 16.0704 51.7397 16.4655 51.741 16.8779V45.4267C51.7397 45.8391 51.5644 46.2342 51.2533 46.5258C50.9423 46.8174 50.5209 46.9818 50.081 46.983H3.16C2.72015 46.9818 2.29868 46.8174 1.98766 46.5258C1.67663 46.2342 1.50132 45.8391 1.5 45.4267V16.5123C1.50079 16.1969 1.63471 15.8946 1.8725 15.6715C2.11028 15.4484 2.43259 15.3226 2.769 15.3216H50.081Z" stroke="#4D5269" stroke-width="3" stroke-miterlimit="10"/>
<path d="M1.5 30.204H51.741" stroke="#4D5269" stroke-width="3" stroke-miterlimit="10"/>
<path d="M1.5 37.1614H51.741" stroke="#4D5269" stroke-width="3" stroke-miterlimit="10"/>
<path d="M11.6721 15.3216L14.2081 2.96489C14.2725 2.6554 14.465 2.38239 14.7434 2.20549C15.0218 2.0286 15.3636 1.96219 15.6941 2.02079L62.1541 10.4014C62.5857 10.4804 62.9664 10.7164 63.2129 11.0577C63.4595 11.399 63.552 11.818 63.4701 12.223L57.7171 40.2553C57.6329 40.6601 57.381 41.0171 57.0167 41.2483C56.6524 41.4795 56.2053 41.5661 55.7731 41.489L51.7411 40.7625" stroke="#4D5269" stroke-width="3" stroke-miterlimit="10"/>
<path d="M3.16 47.0083C2.71988 47.0068 2.29827 46.8421 1.98725 46.5501C1.67622 46.2582 1.50105 45.8627 1.5 45.4501L1.5 16.5263C1.50053 16.2107 1.63433 15.9082 1.87214 15.6849C2.10996 15.4616 2.43242 15.3357 2.769 15.3347H11.669L14.208 2.97237C14.2722 2.66276 14.4646 2.38959 14.7431 2.21265C15.0216 2.03572 15.3635 1.96942 15.694 2.02828L62.154 10.4117C62.5859 10.4905 62.9669 10.7265 63.2136 11.0681C63.4602 11.4097 63.5524 11.829 63.47 12.2343L57.717 40.2777C57.6327 40.6826 57.381 41.0397 57.0167 41.2711C56.6524 41.5024 56.2053 41.5892 55.773 41.5125L51.741 40.7859V45.4501C51.7399 45.8627 51.5648 46.2582 51.2538 46.5501C50.9427 46.8421 50.5211 47.0068 50.081 47.0083H3.16Z" stroke="#4D5269"/>
</svg>
