<svg width="119" height="28" viewBox="0 0 119 28" fill="none" xmlns="http://www.w3.org/2000/svg">
<path d="M43.7988 18.7628C43.7988 20.7989 45.4145 22.4517 47.4113 22.4517C49.4082 22.4517 51.0326 20.7989 51.0326 18.7628C51.0326 16.7273 49.4082 15.0609 47.4113 15.0609C45.4145 15.0609 43.7988 16.7273 43.7988 18.7628Z" fill="white"/>
<path d="M6.22004 10.0477C8.02734 12.7884 11.1505 17.6074 13.8156 21.6903C16.487 25.7885 19.8307 27.2839 23.5249 27.2839C27.1991 27.2839 30.554 25.7885 33.2187 21.6903C35.8835 17.6074 39.172 12.2186 40.9772 9.48468C42.7406 6.81631 44.3783 5.43139 47.1975 5.43139C50.0164 5.43139 51.6608 6.81631 53.4176 9.48468C55.2249 12.2186 58.5137 17.6074 61.1785 21.6903C63.8432 25.7885 67.1847 27.2839 70.8787 27.2839V22.8253C68.2908 22.8253 66.4883 21.3751 64.6162 18.416C62.7342 15.4506 60.4466 11.6696 57.592 7.25805C54.7377 2.84839 51.2709 0.85376 47.1975 0.85376C43.1176 0.85376 39.6547 2.8487 36.7961 7.25805C33.9527 11.6696 31.6603 15.4506 29.7758 18.416C27.8977 21.3751 26.1082 22.7848 23.5249 22.7848C20.937 22.7848 19.1297 21.3751 17.2519 18.416C15.374 15.4506 13.2379 12.2437 10.3881 7.83218C7.53804 3.41851 4.06877 1.41645 0 1.41645V5.96315C2.81465 5.96315 4.45876 7.37931 6.22004 10.0477Z" fill="white"/>
<path d="M77.8879 27.3742H82.6843V9.6202C82.6843 6.83458 82.8823 5.5038 84.2712 4.03999L81.3972 0C79.215 2.23159 77.8879 4.18415 77.8879 9.85437V27.3742Z" fill="white"/>
<path d="M105.374 0.130493C97.8488 0.130493 91.748 6.37516 91.748 14.0679C91.748 21.7575 97.8485 28 105.374 28C112.912 28 119 21.7575 119 14.0679C119 6.37516 112.912 0.130493 105.374 0.130493ZM105.374 23.375C100.498 23.375 96.5262 19.2045 96.5262 14.0679C96.5262 8.9266 100.498 4.7604 105.374 4.7604C110.259 4.7604 114.222 8.9266 114.222 14.0679C114.221 19.2045 110.258 23.375 105.374 23.375Z" fill="white"/>
</svg>
